<svg xmlns="http://www.w3.org/2000/svg" width="140.932" height="141.088" viewBox="0 0 140.932 141.088">
  <g id="blank_chart" data-name="blank chart" transform="translate(-1356 -331.189)">
    <path id="Path_41238" data-name="Path 41238" d="M94.717,99.871,79.762,95.6H67.609V78.685L62.885,59.991l4.725-18.227V27.83a67.714,67.714,0,0,0,.1,135.428c37.4,0,65.388-28.045,67.583-63.46l-20.328-4.2L94.717,99.871Z" transform="translate(1356 309.019)" fill="#e3eaec"/>
    <path id="Path_41239" data-name="Path 41239" d="M341.078,0h-.1V19.785L336.25,38.013l4.725,18.693v11.06l6.474.035L362.4,72.076,382.654,67.8l26.007,4.167q.131-2.108.132-4.253A67.715,67.715,0,0,0,341.078,0Z" transform="translate(1088.138 331.189)" fill="#0097ac" opacity="0.5"/>
  </g>
</svg>
