<svg xmlns="http://www.w3.org/2000/svg" width="82.943" height="77.849" viewBox="0 0 82.943 77.849"><defs><style>.a{fill:#fc6a59;stroke:#f5f7f8;stroke-width:2px;}.b{fill:#7a7480;}</style></defs><g transform="translate(-873.64 -634.458)"><path class="a" d="M8.391,19.617a3.633,3.633,0,1,1-3.633-3.633A3.637,3.637,0,0,1,8.391,19.617ZM1.545,1.144,2.163,13.5a1.09,1.09,0,0,0,1.088,1.035H6.264A1.09,1.09,0,0,0,7.353,13.5L7.97,1.144A1.09,1.09,0,0,0,6.882,0H2.634A1.09,1.09,0,0,0,1.545,1.144Z" transform="translate(906.277 659.25)"/><g transform="translate(899.054 627.858) rotate(30)"><rect class="b" width="28.608" height="7.468" rx="3.734" transform="translate(60.977 34.567) rotate(9.72)"/><path class="b" d="M49.864,28.414c0,.115-.012.232-.02.349h4.471c.008-.117.012-.233.016-.349ZM0,27.179v.4c.008.565.032,1.126.08,1.684a26.549,26.549,0,0,0,.768,4.645,27.04,27.04,0,0,0,7.142,12.5c.134.134.268.268.4.393.536.514,1.09,1.007,1.667,1.475a27.05,27.05,0,0,0,17.133,6.082h.326A27.2,27.2,0,0,0,52.947,35.846c.212-.637.4-1.282.574-1.94a27.466,27.466,0,0,0,.661-3.6h0c.028-.26.056-.522.076-.786s.044-.506.056-.762c.008-.117.012-.233.016-.349.012-.257.02-.51.024-.767v-.468A27.181,27.181,0,0,0,31.307.314q-.378-.06-.762-.109c-.28-.032-.561-.064-.842-.089-.252-.024-.51-.044-.762-.06C28.355.016,27.767,0,27.177,0c-.5,0-1,.012-1.491.04-.846.044-1.68.134-2.506.253A27.16,27.16,0,0,0,4.367,12.4,26.846,26.846,0,0,0,2.2,16.44c-.04.089-.076.181-.113.268s-.072.173-.1.257q-.312.752-.569,1.523A26.725,26.725,0,0,0,.381,22.615c-.068.373-.119.75-.172,1.13a1.611,1.611,0,0,1-.02.2v.016a.758.758,0,0,0-.008.1.945.945,0,0,0-.016.113v.028a.237.237,0,0,0-.008.056.6.6,0,0,0-.008.084c-.008.068-.016.134-.02.2-.04.417-.072.838-.093,1.259,0,.056-.008.117-.008.173l-.012.276C0,26.557,0,26.861,0,27.179Zm6.09,8.456-.1-.268c-.075-.2-.148-.394-.22-.594L5.6,34.292c-.039-.121-.079-.24-.115-.361a.03.03,0,0,0-.008-.024.437.437,0,0,1-.02-.068c-.064-.2-.121-.4-.177-.609l-.064-.237c-.059-.216-.111-.437-.164-.657a.549.549,0,0,0-.016-.068c-.044-.2-.089-.4-.134-.613-.02-.084-.036-.169-.052-.253-.048-.256-.091-.516-.134-.778-.072-.457-.125-.919-.169-1.382-.016-.157-.028-.318-.04-.477h0A.973.973,0,0,0,4.5,28.61c-.012-.216-.024-.433-.032-.649v-.217c0-.188-.008-.377-.008-.565s0-.354.008-.526a19.785,19.785,0,0,1,.145-2.085,1.933,1.933,0,0,1,.024-.216.015.015,0,0,1,0-.012h0a.008.008,0,0,1,0-.012.15.15,0,0,1,0-.044V24.26a22.544,22.544,0,0,1,3.372-9.29,22.784,22.784,0,0,1,8.261-7.714,22.043,22.043,0,0,1,2.76-1.283c.3-.117.609-.229.917-.329a22.211,22.211,0,0,1,5.417-1.1c.6-.052,1.207-.075,1.82-.075.185,0,.366,0,.55.007.213,0,.421.012.634.02.152.008.3.02.456.032a1.219,1.219,0,0,1,.125.008c.252.016.51.04.762.068l.193.024c.1.012.2.024.3.04s.228.028.345.048c.256.036.51.08.762.125l.068.012c.2.035.393.075.59.119l.036.008c.079.016.164.036.244.056.185.04.365.084.546.134a2.34,2.34,0,0,1,.236.06c.209.055.417.111.626.176s.4.121.593.185c.093.028.185.06.268.093.393.134.782.276,1.163.432.1.04.209.084.314.134.16.068.316.134.477.209.127.055.256.111.381.176.188.084.373.177.556.268.209.1.413.212.614.325.232.123.457.252.681.385.465.268.915.561,1.356.866.188.134.373.26.556.4.233.164.457.337.679.512.2.157.393.318.585.481s.393.337.586.514a22.662,22.662,0,0,1,7.426,16.8v.468c0,.257-.012.51-.028.767,0,.115-.012.232-.02.349-.02.256-.04.51-.068.762-.072.721-.181,1.431-.32,2.133a22.33,22.33,0,0,1-.574,2.253c-.181.586-.385,1.163-.613,1.724A22.715,22.715,0,0,1,27.506,49.893h-.326A22.718,22.718,0,0,1,7.114,37.825c-.1-.192-.2-.385-.3-.577L6.64,36.88c-.072-.145-.134-.288-.205-.437L6.372,36.3c-.056-.127-.113-.256-.165-.389Z" transform="translate(4.831 4.833)"/></g></g></svg>